# xmcd CD database file
#
# Track frame offsets:
#	150
#	22322
#	42157
#
# Disc length: 857 seconds
#
# Revision: 4
# Processed by: cddbd v1.5.1PL0 Copyright (c) Steve Scherf et al.
# Submitted via: CDex 1.51
#
DISCID=21035703
DTITLE=吉川晃司 - せつなさを殺せない
DYEAR=1992
DGENRE=Rock
TTITLE0=せつなさを殺せない
TTITLE1=激しい季節
TTITLE2=せつなさを殺せない(karaoke)
EXTD=YEAR: 1992
EXTT0=
EXTT1=
EXTT2=
PLAYORDER=
